<?xml version="1.0" standalone="no"?><!DOCTYPE svg PUBLIC "-//W3C//DTD SVG 1.1//EN" "http://www.w3.org/Graphics/SVG/1.1/DTD/svg11.dtd"><svg class="icon" width="32px" height="32.00px" viewBox="0 0 1024 1024" version="1.1" xmlns="http://www.w3.org/2000/svg"><path fill="#d81e06" d="M485.052632 307.577263L315.499789 477.184a26.947368 26.947368 0 1 1-38.157473-38.157474l215.578947-215.578947a26.947368 26.947368 0 0 1 38.157474 0l215.578947 215.578947a26.947368 26.947368 0 0 1-38.157473 38.157474L538.947368 307.577263V727.578947a26.947368 26.947368 0 1 1-53.894736 0V307.577263zM512 1024a512 512 0 1 1 0-1024 512 512 0 0 1 0 1024z m0-53.894737a458.105263 458.105263 0 1 0 0-916.210526 458.105263 458.105263 0 0 0 0 916.210526z"  /></svg>